<svg width="20" height="20" viewBox="0 0 20 20" fill="none" xmlns="http://www.w3.org/2000/svg">
<path d="M11.0582 0C6.12788 0 2.11671 4.01116 2.11671 8.94154C2.11671 10.3974 2.46668 11.773 3.08652 12.9889L0.811248 15.2642C-0.270742 16.3461 -0.270742 18.1066 0.811248 19.1885C1.35218 19.7295 2.06281 20 2.77339 20C3.48402 20 4.19468 19.7295 4.73558 19.1885L7.01081 16.9132C8.22686 17.5331 9.60244 17.8831 11.0582 17.8831C15.9886 17.8831 19.9997 13.8719 19.9997 8.94154C19.9997 4.0112 15.9886 0 11.0582 0ZM3.42753 17.8804C3.06679 18.2411 2.48003 18.241 2.11937 17.8804C1.75867 17.5197 1.75867 16.9329 2.11937 16.5723L4.11859 14.5731C4.50855 15.0528 4.94706 15.4913 5.42671 15.8813L3.42753 17.8804ZM11.0582 16.0331C7.14795 16.0331 3.96667 12.8518 3.96667 8.94154C3.96667 5.03128 7.14795 1.85 11.0582 1.85C14.9685 1.85 18.1498 5.03124 18.1498 8.94154C18.1498 12.8518 14.9685 16.0331 11.0582 16.0331Z" fill="black"/>
</svg>
