<svg width="48" height="49" viewBox="0 0 48 49" fill="none" xmlns="http://www.w3.org/2000/svg">
<path d="M22 8.62573H8C6.93913 8.62573 5.92172 9.04715 5.17157 9.7973C4.42143 10.5474 4 11.5649 4 12.6257V40.6257C4 41.6866 4.42143 42.704 5.17157 43.4542C5.92172 44.2043 6.93913 44.6257 8 44.6257H36C37.0609 44.6257 38.0783 44.2043 38.8284 43.4542C39.5786 42.704 40 41.6866 40 40.6257V26.6257M37 5.62573C37.7956 4.83008 38.8748 4.38309 40 4.38309C41.1252 4.38309 42.2044 4.83008 43 5.62573C43.7956 6.42138 44.2426 7.50051 44.2426 8.62573C44.2426 9.75095 43.7956 10.8301 43 11.6257L24 30.6257L16 32.6257L18 24.6257L37 5.62573Z" stroke="#1E1E1E" stroke-width="4" stroke-linecap="round" stroke-linejoin="round"/>
</svg>
